<svg data-name="lok" xmlns="http://www.w3.org/2000/svg" width="160" height="150"><path d="M62.429 24.972a62.6 62.6 0 0 0-13.322 1.439L69.74 0h-17.3l-9.681 11.941s-20.427 23.7-31.082 39.127a62.419 62.419 0 1 0 50.752-26.1zm97.298 80.335h-6.672l-6.084 8.076v-8.076h-5.094v19.691h5.094v-8.136l6.136 8.059.058.077h6.562l-8.107-9.845 8.107-9.846zm-10.188-55.223h-5.094v19.693h10.95V65.81h-5.856V50.084zm.381 27.252A10.08 10.08 0 1 0 160 87.416a10.079 10.079 0 0 0-10.08-10.08zm0 15.2a5.119 5.119 0 1 1 5.119-5.119 5.119 5.119 0 0 1-5.119 5.118z"/></svg>